<?xml version="1.0" standalone="no"?>
<!DOCTYPE svg PUBLIC "-//W3C//DTD SVG 20010904//EN"
 "http://www.w3.org/TR/2001/REC-SVG-20010904/DTD/svg10.dtd">
<svg version="1.0" xmlns="http://www.w3.org/2000/svg"
 width="1032.000000pt" height="1032.000000pt" viewBox="0 0 1032.000000 1032.000000"
 preserveAspectRatio="xMidYMid meet">
<metadata>
Created by potrace 1.14, written by Peter Selinger 2001-2017
</metadata>
<g transform="translate(0.000000,1032.000000) scale(0.100000,-0.100000)"
fill="#000000" stroke="none">
<path d="M5768 7195 c-3 -3 -41 -11 -108 -22 -19 -3 -46 -10 -60 -16 -29 -12
-50 -18 -67 -19 -7 -1 -13 -5 -13 -10 0 -4 -9 -8 -20 -8 -11 0 -20 -4 -20 -9
0 -5 -11 -12 -25 -15 -14 -4 -25 -11 -25 -16 0 -6 -5 -10 -11 -10 -27 0 -156
-140 -142 -154 4 -3 1 -6 -5 -6 -7 0 -12 -8 -12 -18 0 -10 -3 -22 -7 -26 -8
-7 -12 -26 -17 -71 -5 -45 -28 -115 -38 -115 -5 0 -7 -4 -3 -9 3 -5 1 -12 -4
-15 -7 -5 -12 -21 -27 -84 -9 -44 -26 -46 -101 -10 -12 6 -33 11 -47 11 -14 0
-26 3 -26 8 0 4 -9 6 -20 4 -11 -2 -21 -1 -24 3 -4 7 -87 7 -171 -1 -47 -5
-62 -8 -102 -24 -10 -3 -21 -7 -25 -8 -5 -2 -10 -4 -13 -5 -3 -1 -8 -3 -12 -4
-20 -6 -69 -32 -75 -41 -4 -5 -8 -6 -8 -1 0 5 -11 -3 -24 -17 -13 -14 -26 -24
-28 -21 -3 2 -27 -20 -54 -50 -63 -69 -94 -106 -87 -106 2 0 -4 -15 -15 -32
-17 -28 -41 -95 -48 -133 -1 -5 -3 -12 -4 -15 -4 -10 -9 -67 -11 -127 -1 -38
-7 -63 -13 -64 -6 0 -31 -2 -56 -5 -25 -2 -71 -5 -102 -7 -32 -1 -58 -4 -58
-7 0 -3 -28 -6 -63 -7 -58 -2 -172 -10 -172 -13 0 0 -31 -3 -70 -6 -100 -8
-130 -11 -130 -14 0 -1 -20 -3 -45 -5 -25 -2 -72 -6 -105 -10 -91 -11 -115
-14 -180 -19 -33 -3 -78 -10 -101 -14 -22 -5 -50 -7 -62 -5 -12 1 -22 -1 -22
-5 0 -4 -19 -9 -42 -10 -50 -3 -103 -9 -103 -12 0 -2 -18 -5 -95 -14 -25 -3
-56 -8 -70 -11 -14 -3 -45 -7 -70 -10 -25 -2 -45 -5 -45 -5 0 -3 -41 -11 -70
-14 -16 -2 -30 -5 -30 -6 0 -1 -16 -3 -35 -5 -19 -2 -46 -6 -60 -10 -14 -3
-36 -8 -50 -10 -86 -13 -135 -22 -135 -25 0 -2 -33 -8 -90 -15 -27 -4 -53 -11
-56 -17 -4 -7 -9 -6 -14 1 -5 9 -10 9 -21 0 -8 -6 -14 -8 -14 -4 0 4 -6 3 -12
-2 -7 -6 -21 -9 -30 -8 -10 2 -18 0 -18 -4 0 -4 -10 -7 -22 -6 -13 1 -27 0
-33 -4 -5 -3 -12 -6 -15 -7 -3 0 -21 -4 -40 -7 -19 -4 -44 -9 -55 -10 -11 -1
-26 -6 -32 -10 -7 -5 -13 -6 -13 -3 0 2 -15 0 -32 -5 -35 -10 -94 -21 -115
-22 -7 0 -13 -3 -13 -7 0 -4 -6 -7 -12 -8 -15 -1 -57 -9 -78 -15 -8 -2 -33 -8
-55 -12 -55 -12 -55 -12 -57 -15 -3 -2 -17 -5 -54 -14 -12 -2 -39 -9 -59 -15
-21 -6 -42 -8 -47 -5 -4 3 -8 1 -8 -4 0 -5 -12 -12 -28 -15 -15 -3 -37 -8 -50
-11 -12 -3 -30 -8 -40 -11 -9 -2 -42 -11 -72 -20 -30 -9 -60 -17 -67 -19 -7
-1 -15 -5 -19 -8 -3 -4 -12 -4 -20 -1 -8 3 -14 1 -14 -4 0 -5 -8 -10 -18 -11
-34 -4 -52 -8 -58 -15 -4 -4 -18 -7 -31 -7 -12 0 -23 -5 -23 -11 0 -6 -7 -9
-15 -6 -8 4 -17 2 -20 -4 -4 -5 -11 -7 -16 -4 -5 4 -9 3 -9 -2 0 -4 -29 -21
-65 -38 -36 -16 -65 -33 -65 -37 0 -5 -6 -8 -14 -8 -8 0 -17 -7 -20 -16 -4 -9
-9 -14 -12 -11 -3 3 -30 -19 -60 -47 -30 -29 -54 -50 -54 -47 0 3 -10 -9 -21
-26 -12 -18 -25 -33 -30 -33 -5 0 -8 -3 -7 -7 1 -5 -9 -26 -23 -48 -52 -82
-83 -176 -94 -280 -3 -27 -6 -62 -8 -77 -2 -16 1 -28 6 -28 5 0 4 -6 -2 -13
-6 -8 -8 -17 -5 -20 4 -3 8 -28 10 -54 4 -65 13 -134 20 -145 3 -5 8 -24 10
-41 3 -18 8 -39 11 -47 8 -19 8 -22 30 -100 10 -36 20 -67 23 -70 3 -3 6 -14
8 -25 3 -19 9 -40 27 -90 4 -11 9 -31 11 -45 2 -14 8 -26 14 -28 5 -2 8 -7 5
-12 -3 -4 2 -26 10 -49 8 -23 14 -43 15 -46 0 -3 1 -7 1 -10 1 -3 2 -8 3 -12
1 -5 7 -24 13 -43 22 -69 65 -214 67 -224 1 -6 5 -17 9 -23 5 -7 6 -13 3 -13
-3 0 3 -23 14 -50 11 -27 17 -50 14 -50 -4 0 -1 -6 5 -14 6 -8 11 -18 9 -22
-1 -5 4 -20 11 -33 11 -19 11 -22 -1 -15 -10 6 -11 5 -1 -7 7 -9 14 -24 16
-35 1 -10 6 -24 9 -30 4 -6 9 -21 12 -35 4 -19 24 -86 41 -139 14 -42 29 -70
37 -70 5 0 7 -4 4 -8 -5 -8 40 -80 71 -114 9 -10 13 -18 10 -18 -4 0 15 -19
41 -43 26 -23 48 -45 50 -49 2 -5 8 -8 13 -8 5 0 18 -8 29 -18 11 -9 23 -16
26 -14 3 2 14 -6 24 -18 10 -12 21 -21 24 -21 19 1 66 -13 66 -20 0 -5 3 -8 8
-7 4 1 27 -4 52 -11 24 -7 58 -14 75 -15 16 -1 35 -5 42 -9 6 -4 15 -3 18 3 4
7 11 8 18 1 16 -12 137 -11 161 1 14 8 17 7 11 -3 -6 -8 -4 -10 5 -4 6 4 33 9
59 12 54 5 86 10 86 13 0 2 27 6 85 13 19 3 42 7 50 10 40 16 440 114 495 122
11 2 21 4 23 5 2 3 2 3 57 15 22 4 47 10 55 12 8 2 26 6 40 8 14 2 36 7 50 10
24 5 101 21 145 30 11 3 36 6 55 9 19 2 42 7 50 10 8 3 31 7 50 10 19 3 46 8
60 12 60 14 106 3 96 -22 -3 -8 -1 -14 4 -14 5 0 7 -12 6 -26 -5 -49 14 -116
44 -157 16 -23 30 -37 30 -31 0 5 4 3 8 -4 16 -24 115 -35 192 -20 25 5 63 11
85 13 22 3 54 7 70 9 31 5 102 15 145 21 14 1 54 6 90 10 36 4 79 9 95 11 17
2 50 6 75 8 25 3 68 7 95 10 130 13 193 19 232 20 24 0 43 4 43 8 0 8 21 5 36
-5 6 -3 14 -3 18 1 4 4 26 8 49 9 23 1 83 4 132 7 144 9 350 17 482 19 70 1
119 6 116 11 -4 5 0 6 8 0 19 -12 139 -11 139 1 0 7 3 7 8 0 9 -12 85 -13 93
-1 4 5 13 5 20 0 8 -5 79 -9 159 -11 216 -3 380 -10 387 -16 3 -3 16 -2 29 3
13 5 24 6 24 2 0 -4 35 -8 78 -10 83 -3 167 -9 167 -12 0 -1 36 -3 80 -5 44
-2 105 -6 135 -10 30 -3 78 -8 105 -11 28 -3 74 -7 102 -7 29 -1 53 -4 53 -7
0 -5 36 -9 128 -13 17 -1 32 -4 32 -7 0 -3 15 -6 33 -7 17 0 51 -3 75 -7 23
-3 61 -8 85 -11 23 -3 56 -7 72 -10 17 -3 50 -8 75 -11 25 -3 57 -9 72 -14 15
-5 30 -5 33 0 3 4 13 7 23 5 9 -1 27 4 40 11 12 8 22 12 22 8 0 -9 54 49 68
74 7 12 15 44 17 70 9 86 12 101 24 116 12 14 24 14 89 0 15 -3 47 -8 72 -11
25 -3 47 -8 50 -12 3 -3 21 -7 40 -9 35 -3 75 -9 75 -12 0 -1 9 -3 20 -5 29
-5 137 -26 155 -29 8 -2 22 -6 30 -9 8 -3 29 -8 45 -11 45 -7 86 -16 125 -26
19 -5 46 -11 60 -14 14 -3 43 -10 64 -15 22 -5 44 -8 48 -5 4 3 8 1 8 -4 0 -5
6 -9 13 -10 6 -1 23 -3 37 -4 14 -2 28 -7 31 -11 3 -4 20 -10 37 -12 17 -2 50
-9 74 -15 59 -16 81 -21 96 -22 6 -1 12 -4 12 -8 0 -3 12 -5 28 -5 15 1 35 -3
45 -8 17 -8 55 -13 147 -21 14 -1 31 -5 38 -9 7 -5 12 -3 12 5 0 8 3 9 8 2 4
-5 17 -10 30 -11 12 0 25 -2 30 -3 11 -3 147 6 147 10 0 2 48 9 88 11 15 1 27
6 27 11 0 4 11 8 24 8 14 0 28 5 31 10 4 6 11 8 16 5 5 -4 9 -1 9 4 0 6 3 10
8 10 12 -3 72 23 72 30 0 4 18 16 40 27 22 10 43 27 46 37 3 9 11 17 17 17 14
0 22 8 85 89 44 55 99 159 107 202 3 13 9 25 15 27 6 2 8 7 5 12 -3 4 1 28 9
53 8 25 11 48 8 51 -3 4 0 6 7 6 6 0 11 6 10 13 -1 6 1 19 4 27 12 29 41 135
39 143 -1 4 2 7 7 7 5 0 8 8 6 18 -1 9 4 30 12 45 8 16 12 31 9 35 -3 3 -2 10
3 16 6 7 12 24 15 40 3 15 9 33 14 39 5 7 8 20 7 30 -2 9 0 17 4 17 4 0 8 12
9 26 1 15 6 32 11 38 6 6 11 23 13 36 2 14 7 31 12 38 4 7 5 16 2 19 -3 3 -2
11 3 17 14 16 50 153 43 160 -3 3 0 6 6 6 7 0 11 3 10 8 -3 13 24 96 35 111 9
11 9 13 0 8 -8 -5 -7 2 2 20 8 15 15 33 15 40 0 7 7 33 16 59 9 26 18 57 20
68 2 12 10 44 17 71 7 28 14 75 16 105 1 30 7 61 13 68 7 8 7 12 -2 12 -8 0
-9 6 -5 18 8 19 8 19 1 82 -7 57 -13 87 -21 100 -3 6 0 10 7 10 9 0 9 3 2 8
-6 4 -14 21 -17 37 -3 17 -13 47 -21 67 -9 21 -16 41 -15 44 0 4 -3 10 -8 13
-4 3 -15 18 -23 32 -40 71 -139 175 -213 225 -23 16 -44 32 -47 35 -3 4 -15 9
-27 13 -13 4 -23 11 -23 16 0 5 -7 7 -15 4 -8 -4 -15 -1 -15 5 0 6 -9 11 -20
11 -11 0 -20 4 -20 8 0 6 -43 22 -100 36 -9 3 -122 37 -175 54 -27 8 -59 17
-70 18 -11 1 -21 3 -22 4 -2 2 -6 3 -10 4 -5 1 -26 7 -47 14 -22 6 -43 9 -47
7 -4 -3 -9 -1 -11 4 -1 5 -16 11 -33 14 -16 3 -42 10 -57 16 -16 6 -28 9 -28
7 0 -2 -21 2 -46 10 -26 7 -50 11 -55 8 -5 -3 -9 -1 -9 4 0 5 -6 9 -12 10 -7
0 -24 3 -38 6 -14 3 -35 8 -48 10 -12 3 -25 7 -30 9 -4 3 -23 8 -42 11 -19 3
-44 8 -55 11 -79 19 -94 23 -105 30 -9 6 -11 4 -5 -6 8 -12 6 -12 -8 -1 -9 8
-21 11 -27 7 -5 -3 -10 -2 -10 4 0 5 -9 8 -20 6 -11 -2 -20 1 -20 6 0 6 -3 8
-8 6 -4 -3 -48 3 -97 14 -50 10 -101 21 -115 23 -14 3 -36 7 -50 11 -31 7
-100 18 -117 18 -7 0 -13 3 -13 6 0 3 -17 7 -38 8 -45 3 -64 7 -77 15 -5 3
-21 5 -35 4 -14 -1 -40 4 -57 11 -22 9 -33 10 -33 3 0 -7 -8 -7 -22 1 -13 7
-36 13 -53 14 -27 1 -88 11 -140 21 -11 3 -40 7 -65 10 -73 8 -105 13 -105 14
0 2 -42 8 -93 14 -18 2 -36 7 -39 10 -3 3 -12 1 -20 -5 -7 -7 -13 -7 -13 -2 0
5 -15 11 -32 12 -18 1 -49 4 -68 7 -84 11 -147 18 -177 19 -18 0 -33 2 -33 5
0 3 -15 6 -32 7 -41 2 -133 11 -133 13 0 2 -48 6 -160 14 -27 2 -50 5 -50 6 0
1 -25 3 -55 6 -30 3 -75 7 -100 9 -25 2 -76 7 -115 9 -123 9 -188 15 -193 20
-2 3 -6 38 -7 78 -2 87 -12 138 -36 196 -10 23 -16 42 -12 42 3 0 -1 8 -9 18
-9 9 -22 31 -31 47 -30 59 -192 205 -219 197 -5 -1 -8 3 -8 9 0 5 -4 8 -9 4
-5 -3 -12 -1 -16 5 -3 5 -15 10 -26 10 -10 0 -19 5 -19 12 0 6 -3 9 -6 6 -3
-3 -22 -2 -42 4 -94 26 -251 25 -322 -2 -3 -1 -9 -3 -15 -4 -26 -4 -101 -31
-112 -39 -9 -6 -13 -5 -13 2 0 7 -5 9 -11 6 -6 -4 -1 11 10 34 12 23 19 41 17
41 -6 0 63 162 76 177 6 7 7 13 2 13 -5 0 -4 4 1 8 6 4 16 19 23 33 12 22 62
85 89 112 39 38 103 83 103 72 0 -8 -84 -85 -92 -85 -5 0 -8 -5 -8 -10 0 -6
-11 -22 -25 -36 -24 -24 -87 -126 -92 -149 -1 -5 -5 -20 -9 -32 -4 -14 -2 -23
5 -24 6 -1 19 -2 29 -3 9 -1 23 -5 30 -9 6 -5 12 -4 12 1 0 5 10 8 23 7 12 -1
40 3 62 8 22 5 46 10 53 10 6 0 12 5 12 10 0 6 3 8 6 4 9 -9 86 46 109 78 11
15 26 33 33 41 7 8 11 14 7 14 -3 0 2 14 11 31 8 17 18 41 20 52 7 30 15 70
18 82 6 28 30 91 39 103 5 6 6 12 1 12 -5 0 -4 4 1 8 6 4 15 17 22 29 10 17 9
22 -1 26 -8 3 -16 4 -18 2z"/>
<path d="M4929 6966 c-5 -5 -1 -114 4 -151 11 -72 44 -134 96 -185 23 -22 41
-37 41 -34 0 4 7 1 15 -6 20 -16 26 1 21 60 -4 50 -10 71 -32 114 -8 16 -13
30 -11 32 10 11 67 -63 78 -101 10 -35 15 -41 21 -28 13 35 8 93 -13 130 -23
41 -69 99 -69 87 0 -4 -8 2 -17 12 -20 21 -83 59 -83 49 0 -4 -7 1 -16 9 -16
16 -27 20 -35 12z"/>
</g>
</svg>
